<svg width="151" height="34" viewBox="0 0 151 34" fill="none" xmlns="http://www.w3.org/2000/svg">
<path d="M22.8331 14.8178H11.3891V6.18335H5.73389V27.7457H11.3891V18.2336H22.8331V27.7457H28.5197V6.18335H22.8331V14.8178Z" fill="white"/>
<path d="M38.9188 6.18335H33.1929V27.7457H38.9188V6.18335Z" fill="white"/>
<path d="M144.758 6.18335H139.032V27.7457H144.758V6.18335Z" fill="white"/>
<path d="M63.2443 6.18335H41.0161V9.77312H49.3183V27.7457H54.9343V9.77312H63.2443V6.18335Z" fill="white"/>
<path d="M68.5147 6.21484L58.3589 27.7376H64.7132L66.7003 22.9144H77.4139L79.3696 27.7376H85.7553L75.6702 6.21484H68.5147ZM68.1299 19.4986L72.0728 9.88368L75.9843 19.4986H68.1299Z" fill="white"/>
<path d="M97.5448 24.9622C95.3455 24.9622 90.8449 24.5036 90.7742 17.0394C90.7035 9.99432 94.8193 9.00595 97.5448 9.00595C100.231 9.03758 102.917 10.3106 102.956 13.5129H108.753C108.682 9.59897 105.336 5.86688 97.5526 5.79572C91.7639 5.76409 84.7498 8.1599 84.7106 16.9287C84.6791 25.6264 91.8267 28.3385 97.5526 28.2041C102.823 28.0301 108.682 26.5515 108.926 19.9966L103.098 20.0283C102.925 24.1162 99.6812 24.9227 97.5526 24.9622H97.5448Z" fill="white"/>
<path d="M128.814 14.8178H117.362V6.18335H111.714V27.7457H117.362V18.2336H128.814V27.7457H134.461V6.18335H128.814V14.8178Z" fill="white"/>
</svg>
