<?xml version="1.0" encoding="UTF-8"?>
<svg id="Layer_1" xmlns="http://www.w3.org/2000/svg" version="1.1" viewBox="0 0 1916 430">
  <!-- Generator: Adobe Illustrator 29.2.1, SVG Export Plug-In . SVG Version: 2.1.0 Build 116)  -->
  <defs>
    <style>
      .st0 {
        fill: #0d0d0d;
      }
    </style>
  </defs>
  <polygon class="st0" points="290.7 187.4 145 187.4 145 78.2 73 78.2 73 350.9 145 350.9 145 230.6 290.7 230.6 290.7 350.9 363.1 350.9 363.1 78.2 290.7 78.2 290.7 187.4"/>
  <rect class="st0" x="422.6" y="78.2" width="72.9" height="272.7"/>
  <rect class="st0" x="1770.1" y="78.2" width="72.9" height="272.7"/>
  <polygon class="st0" points="805.2 78.2 522.2 78.2 522.2 123.6 627.9 123.6 627.9 350.9 699.4 350.9 699.4 123.6 805.2 123.6 805.2 78.2"/>
  <path class="st0" d="M872.3,78.6l-129.3,272.2h80.9l25.3-61h136.4l24.9,61h81.3l-128.4-272.2h-91.1ZM867.4,246.6l50.2-121.6,49.8,121.6h-100Z"/>
  <path class="st0" d="M1241.9,315.7c-28,0-85.3-5.8-86.2-100.2-.9-89.1,51.5-101.6,86.2-101.6,34.2.4,68.4,16.5,68.9,57h73.8c-.9-49.5-43.5-96.7-142.6-97.6-73.7-.4-163,29.9-163.5,140.8-.4,110,90.6,144.3,163.5,142.6,67.1-2.2,141.7-20.9,144.8-103.8l-74.2.4c-2.2,51.7-43.5,61.9-70.6,62.4Z"/>
  <polygon class="st0" points="1640 187.4 1494.2 187.4 1494.2 78.2 1422.3 78.2 1422.3 350.9 1494.2 350.9 1494.2 230.6 1640 230.6 1640 350.9 1711.9 350.9 1711.9 78.2 1640 78.2 1640 187.4"/>
</svg>